%TF.GenerationSoftware,KiCad,Pcbnew,10.0.2*%
%TF.CreationDate,2026-05-30T19:24:25+05:30*%
%TF.ProjectId,FPGABoard,46504741-426f-4617-9264-2e6b69636164,rev?*%
%TF.SameCoordinates,Original*%
%TF.FileFunction,Copper,L3,Inr*%
%TF.FilePolarity,Positive*%
%FSLAX46Y46*%
G04 Gerber Fmt 4.6, Leading zero omitted, Abs format (unit mm)*
G04 Created by KiCad (PCBNEW 10.0.2) date 2026-05-30 19:24:25*
%MOMM*%
%LPD*%
G01*
G04 APERTURE LIST*
%TA.AperFunction,ComponentPad*%
%ADD10O,1.000000X2.100000*%
%TD*%
%TA.AperFunction,ComponentPad*%
%ADD11O,1.000000X1.600000*%
%TD*%
%TA.AperFunction,ComponentPad*%
%ADD12R,1.700000X1.700000*%
%TD*%
%TA.AperFunction,ComponentPad*%
%ADD13C,1.700000*%
%TD*%
%TA.AperFunction,ViaPad*%
%ADD14C,0.600000*%
%TD*%
%TA.AperFunction,Conductor*%
%ADD15C,0.200000*%
%TD*%
G04 APERTURE END LIST*
D10*
%TO.N,GND*%
%TO.C,J1*%
X133430000Y-147180000D03*
D11*
X133430000Y-151360000D03*
D10*
X142070000Y-147180000D03*
D11*
X142070000Y-151360000D03*
%TD*%
D12*
%TO.N,GND*%
%TO.C,J3*%
X153670000Y-149809200D03*
D13*
X153670000Y-147269200D03*
%TO.N,VBUS*%
X153670000Y-144729201D03*
%TO.N,+3V3*%
X153670000Y-142189200D03*
%TO.N,/E13*%
X153670000Y-139649200D03*
%TO.N,/E12*%
X153670000Y-137109200D03*
%TO.N,/E11*%
X153670000Y-134569200D03*
%TO.N,/E10*%
X153670000Y-132029199D03*
%TO.N,/E9*%
X153670000Y-129489200D03*
%TO.N,GND*%
X153670000Y-126949200D03*
%TO.N,/E8*%
X153670000Y-124409200D03*
%TO.N,/E7*%
X153670000Y-121869201D03*
%TO.N,/E6*%
X153670000Y-119329200D03*
%TO.N,/E5*%
X153670000Y-116789200D03*
%TO.N,/E4*%
X153670000Y-114249200D03*
%TO.N,/E3*%
X153670000Y-111709201D03*
%TO.N,/E2*%
X153670000Y-109169199D03*
%TO.N,/TX*%
X153670000Y-106629200D03*
%TO.N,/RX*%
X153670000Y-104089200D03*
%TO.N,/E1*%
X153670000Y-101549200D03*
%TD*%
D12*
%TO.N,GND*%
%TO.C,J2*%
X120497600Y-150000000D03*
D13*
X120497600Y-147460000D03*
%TO.N,VBUS*%
X120497600Y-144920001D03*
%TO.N,+3V3*%
X120497600Y-142380000D03*
%TO.N,/F17*%
X120497600Y-139840000D03*
%TO.N,/F16*%
X120497600Y-137300000D03*
%TO.N,/F15*%
X120497600Y-134760000D03*
%TO.N,/F14*%
X120497600Y-132219999D03*
%TO.N,/F13*%
X120497600Y-129680000D03*
%TO.N,/F12*%
X120497600Y-127140000D03*
%TO.N,/F11*%
X120497600Y-124600000D03*
%TO.N,/F10*%
X120497600Y-122060001D03*
%TO.N,/F9*%
X120497600Y-119520000D03*
%TO.N,/F8*%
X120497600Y-116980000D03*
%TO.N,/F7*%
X120497600Y-114440000D03*
%TO.N,/F6*%
X120497600Y-111900001D03*
%TO.N,/F5*%
X120497600Y-109359999D03*
%TO.N,/F4*%
X120497600Y-106820000D03*
%TO.N,/F2*%
X120497600Y-104280000D03*
%TO.N,/F1*%
X120497600Y-101740000D03*
%TD*%
D14*
%TO.N,VBUS*%
X127783087Y-131355587D03*
X133036318Y-142443752D03*
X130538089Y-134095589D03*
X131211507Y-132468093D03*
X126713162Y-132476496D03*
%TO.N,GND*%
X134800000Y-127700000D03*
X134442059Y-144246741D03*
X131155589Y-130635589D03*
X133100000Y-133600000D03*
X130700000Y-143300000D03*
X127528552Y-114621446D03*
X130000000Y-120400000D03*
X129779668Y-131040589D03*
X123870181Y-124827788D03*
X124300000Y-119000000D03*
X133807501Y-117700000D03*
%TO.N,+3V3*%
X128372989Y-127872989D03*
X123900000Y-123800000D03*
X132796495Y-130800000D03*
X132021839Y-132611839D03*
X127076200Y-102846599D03*
X127300000Y-118300000D03*
X136590001Y-120500000D03*
%TO.N,Net-(U1B-IOB_20a)*%
X135365687Y-119015688D03*
X145350000Y-132700000D03*
%TO.N,+1V2*%
X136850000Y-125750000D03*
X125616833Y-130629145D03*
X126312738Y-121780001D03*
%TO.N,/CSn*%
X131775059Y-114924941D03*
X133807501Y-115944265D03*
%TO.N,Net-(U1B-IOB_18a)*%
X139750000Y-127950000D03*
X135390001Y-120250000D03*
%TO.N,/E13*%
X139350000Y-115650000D03*
%TO.N,/E12*%
X141100000Y-115850000D03*
%TO.N,/E11*%
X141950000Y-115800000D03*
%TO.N,/E10*%
X142750000Y-115700000D03*
%TO.N,/F17*%
X133396495Y-127303505D03*
%TO.N,/F16*%
X132659805Y-126349711D03*
%TO.N,/F15*%
X130749907Y-126344601D03*
%TO.N,/F14*%
X128457296Y-126474091D03*
%TO.N,/F4*%
X129815096Y-117756519D03*
%TO.N,/F2*%
X131107502Y-117250000D03*
%TO.N,/F1*%
X134800000Y-118450000D03*
%TD*%
%TO.N,VBUS*%
D15*
X130538089Y-133141511D02*
X131211507Y-132468093D01*
X126721565Y-132468093D02*
X131211507Y-132468093D01*
X126713162Y-132476496D02*
X126713162Y-132425512D01*
X126713162Y-132425512D02*
X127783087Y-131355587D01*
X126713162Y-132476496D02*
X126721565Y-132468093D01*
X130538089Y-134095589D02*
X130538089Y-133141511D01*
%TO.N,GND*%
X120497600Y-147460000D02*
X133150000Y-147460000D01*
X120497600Y-150000000D02*
X120497600Y-147460000D01*
%TD*%
%TA.AperFunction,Conductor*%
%TO.N,GND*%
G36*
X151842098Y-99819685D02*
G01*
X151887853Y-99872489D01*
X151899055Y-99924938D01*
X151746133Y-120148848D01*
X151502563Y-152361149D01*
X151502447Y-152376438D01*
X151482257Y-152443326D01*
X151429108Y-152488681D01*
X151378451Y-152499500D01*
X142943120Y-152499500D01*
X142876081Y-152479815D01*
X142830326Y-152427011D01*
X142820382Y-152357853D01*
X142844441Y-152303246D01*
X142843367Y-152302528D01*
X142956185Y-152133684D01*
X142956192Y-152133671D01*
X143031569Y-151951693D01*
X143031572Y-151951681D01*
X143069999Y-151758495D01*
X143070000Y-151758492D01*
X143070000Y-151610000D01*
X142370000Y-151610000D01*
X142370000Y-151110000D01*
X143070000Y-151110000D01*
X143070000Y-150961508D01*
X143069999Y-150961504D01*
X143031572Y-150768318D01*
X143031569Y-150768306D01*
X142956192Y-150586328D01*
X142956185Y-150586315D01*
X142846751Y-150422537D01*
X142846748Y-150422533D01*
X142707466Y-150283251D01*
X142707462Y-150283248D01*
X142543684Y-150173814D01*
X142543671Y-150173807D01*
X142361691Y-150098429D01*
X142361683Y-150098427D01*
X142320000Y-150090135D01*
X142320000Y-150893011D01*
X142310060Y-150875795D01*
X142254205Y-150819940D01*
X142185796Y-150780444D01*
X142109496Y-150760000D01*
X142030504Y-150760000D01*
X141954204Y-150780444D01*
X141885795Y-150819940D01*
X141829940Y-150875795D01*
X141820000Y-150893011D01*
X141820000Y-150090136D01*
X141819999Y-150090135D01*
X141778316Y-150098427D01*
X141778308Y-150098429D01*
X141596328Y-150173807D01*
X141596315Y-150173814D01*
X141432537Y-150283248D01*
X141432533Y-150283251D01*
X141293251Y-150422533D01*
X141293248Y-150422537D01*
X141183814Y-150586315D01*
X141183807Y-150586328D01*
X141108430Y-150768306D01*
X141108427Y-150768318D01*
X141070000Y-150961504D01*
X141070000Y-151110000D01*
X141770000Y-151110000D01*
X141770000Y-151610000D01*
X141070000Y-151610000D01*
X141070000Y-151758495D01*
X141108427Y-151951681D01*
X141108430Y-151951693D01*
X141183807Y-152133671D01*
X141183814Y-152133684D01*
X141296633Y-152302528D01*
X141295478Y-152303299D01*
X141320047Y-152361149D01*
X141308253Y-152430016D01*
X141261100Y-152481575D01*
X141196880Y-152499500D01*
X136613788Y-152499500D01*
X136612118Y-152499489D01*
X134322675Y-152468654D01*
X134255907Y-152448068D01*
X134210867Y-152394653D01*
X134201856Y-152325367D01*
X134221243Y-152275774D01*
X134316185Y-152133683D01*
X134316192Y-152133671D01*
X134391569Y-151951693D01*
X134391572Y-151951681D01*
X134429999Y-151758495D01*
X134430000Y-151758492D01*
X134430000Y-151610000D01*
X133730000Y-151610000D01*
X133730000Y-151110000D01*
X134430000Y-151110000D01*
X134430000Y-150961508D01*
X134429999Y-150961504D01*
X134391572Y-150768318D01*
X134391569Y-150768306D01*
X134316192Y-150586328D01*
X134316185Y-150586315D01*
X134206751Y-150422537D01*
X134206748Y-150422533D01*
X134067466Y-150283251D01*
X134067462Y-150283248D01*
X133903684Y-150173814D01*
X133903671Y-150173807D01*
X133721691Y-150098429D01*
X133721683Y-150098427D01*
X133680000Y-150090135D01*
X133680000Y-150893011D01*
X133670060Y-150875795D01*
X133614205Y-150819940D01*
X133545796Y-150780444D01*
X133469496Y-150760000D01*
X133390504Y-150760000D01*
X133314204Y-150780444D01*
X133245795Y-150819940D01*
X133189940Y-150875795D01*
X133180000Y-150893011D01*
X133180000Y-150090136D01*
X133179999Y-150090135D01*
X133138316Y-150098427D01*
X133138308Y-150098429D01*
X132956328Y-150173807D01*
X132956315Y-150173814D01*
X132792537Y-150283248D01*
X132792533Y-150283251D01*
X132653251Y-150422533D01*
X132653248Y-150422537D01*
X132543814Y-150586315D01*
X132543807Y-150586328D01*
X132468430Y-150768306D01*
X132468427Y-150768318D01*
X132430000Y-150961504D01*
X132430000Y-151110000D01*
X133130000Y-151110000D01*
X133130000Y-151610000D01*
X132430000Y-151610000D01*
X132430000Y-151758495D01*
X132468427Y-151951681D01*
X132468430Y-151951693D01*
X132543807Y-152133671D01*
X132543814Y-152133684D01*
X132622514Y-152251466D01*
X132643392Y-152318144D01*
X132624907Y-152385524D01*
X132572929Y-152432214D01*
X132517742Y-152444346D01*
X121923908Y-152301668D01*
X121857140Y-152281082D01*
X121812100Y-152227667D01*
X121801588Y-152176091D01*
X121873955Y-146531504D01*
X132430000Y-146531504D01*
X132430000Y-146930000D01*
X133130000Y-146930000D01*
X133130000Y-147430000D01*
X132430000Y-147430000D01*
X132430000Y-147828495D01*
X132468427Y-148021681D01*
X132468430Y-148021693D01*
X132543807Y-148203671D01*
X132543814Y-148203684D01*
X132653248Y-148367462D01*
X132653251Y-148367466D01*
X132792533Y-148506748D01*
X132792537Y-148506751D01*
X132956315Y-148616185D01*
X132956328Y-148616192D01*
X133138308Y-148691569D01*
X133180000Y-148699862D01*
X133180000Y-147896988D01*
X133189940Y-147914205D01*
X133245795Y-147970060D01*
X133314204Y-148009556D01*
X133390504Y-148030000D01*
X133469496Y-148030000D01*
X133545796Y-148009556D01*
X133614205Y-147970060D01*
X133670060Y-147914205D01*
X133680000Y-147896988D01*
X133680000Y-148699862D01*
X133721690Y-148691569D01*
X133721692Y-148691569D01*
X133903671Y-148616192D01*
X133903684Y-148616185D01*
X134067462Y-148506751D01*
X134067466Y-148506748D01*
X134206748Y-148367466D01*
X134206751Y-148367462D01*
X134319574Y-148198613D01*
X134321007Y-148199570D01*
X134364198Y-148155580D01*
X134432332Y-148140103D01*
X134498018Y-148163919D01*
X134500089Y-148165697D01*
X134500189Y-148165568D01*
X134506630Y-148170510D01*
X134506635Y-148170515D01*
X134637865Y-148246281D01*
X134784234Y-148285500D01*
X134784236Y-148285500D01*
X134935764Y-148285500D01*
X134935766Y-148285500D01*
X135082135Y-148246281D01*
X135213365Y-148170515D01*
X135320515Y-148063365D01*
X135396281Y-147932135D01*
X135435500Y-147785766D01*
X135435500Y-147634234D01*
X140064500Y-147634234D01*
X140064500Y-147785765D01*
X140103719Y-147932136D01*
X140125615Y-147970060D01*
X140179485Y-148063365D01*
X140286635Y-148170515D01*
X140417865Y-148246281D01*
X140564234Y-148285500D01*
X140564236Y-148285500D01*
X140715764Y-148285500D01*
X140715766Y-148285500D01*
X140862135Y-148246281D01*
X140993365Y-148170515D01*
X140993372Y-148170507D01*
X140999811Y-148165568D01*
X141002044Y-148168478D01*
X141048258Y-148142865D01*
X141117980Y-148147411D01*
X141174176Y-148188930D01*
X141180394Y-148198634D01*
X141180426Y-148198613D01*
X141293248Y-148367462D01*
X141293251Y-148367466D01*
X141432533Y-148506748D01*
X141432537Y-148506751D01*
X141596315Y-148616185D01*
X141596328Y-148616192D01*
X141778308Y-148691569D01*
X141820000Y-148699862D01*
X141820000Y-147896988D01*
X141829940Y-147914205D01*
X141885795Y-147970060D01*
X141954204Y-148009556D01*
X142030504Y-148030000D01*
X142109496Y-148030000D01*
X142185796Y-148009556D01*
X142254205Y-147970060D01*
X142310060Y-147914205D01*
X142320000Y-147896988D01*
X142320000Y-148699862D01*
X142361690Y-148691569D01*
X142361692Y-148691569D01*
X142543671Y-148616192D01*
X142543684Y-148616185D01*
X142707462Y-148506751D01*
X142707466Y-148506748D01*
X142846748Y-148367466D01*
X142846751Y-148367462D01*
X142956185Y-148203684D01*
X142956192Y-148203671D01*
X143031569Y-148021693D01*
X143031572Y-148021681D01*
X143069999Y-147828495D01*
X143070000Y-147828492D01*
X143070000Y-147430000D01*
X142370000Y-147430000D01*
X142370000Y-146930000D01*
X143070000Y-146930000D01*
X143070000Y-146531508D01*
X143069999Y-146531504D01*
X143031572Y-146338318D01*
X143031569Y-146338306D01*
X142956192Y-146156328D01*
X142956185Y-146156315D01*
X142846751Y-145992537D01*
X142846748Y-145992533D01*
X142707466Y-145853251D01*
X142707462Y-145853248D01*
X142543684Y-145743814D01*
X142543671Y-145743807D01*
X142361691Y-145668429D01*
X142361683Y-145668427D01*
X142320000Y-145660135D01*
X142320000Y-146463011D01*
X142310060Y-146445795D01*
X142254205Y-146389940D01*
X142185796Y-146350444D01*
X142109496Y-146330000D01*
X142030504Y-146330000D01*
X141954204Y-146350444D01*
X141885795Y-146389940D01*
X141829940Y-146445795D01*
X141820000Y-146463011D01*
X141820000Y-145660136D01*
X141819999Y-145660135D01*
X141778316Y-145668427D01*
X141778308Y-145668429D01*
X141596328Y-145743807D01*
X141596315Y-145743814D01*
X141432537Y-145853248D01*
X141432533Y-145853251D01*
X141293251Y-145992533D01*
X141293248Y-145992537D01*
X141183814Y-146156315D01*
X141183807Y-146156328D01*
X141108430Y-146338306D01*
X141108427Y-146338318D01*
X141070000Y-146531504D01*
X141070000Y-146930000D01*
X141770000Y-146930000D01*
X141770000Y-147430000D01*
X141214464Y-147430000D01*
X141147425Y-147410315D01*
X141107077Y-147368000D01*
X141100517Y-147356638D01*
X141100513Y-147356633D01*
X140993367Y-147249487D01*
X140993365Y-147249485D01*
X140927750Y-147211602D01*
X140862136Y-147173719D01*
X140788950Y-147154109D01*
X140715766Y-147134500D01*
X140564234Y-147134500D01*
X140417863Y-147173719D01*
X140286635Y-147249485D01*
X140286632Y-147249487D01*
X140179487Y-147356632D01*
X140179485Y-147356635D01*
X140103719Y-147487863D01*
X140064500Y-147634234D01*
X135435500Y-147634234D01*
X135396281Y-147487865D01*
X135320515Y-147356635D01*
X135213365Y-147249485D01*
X135147750Y-147211602D01*
X135082136Y-147173719D01*
X135008950Y-147154109D01*
X134935766Y-147134500D01*
X134784234Y-147134500D01*
X134637863Y-147173719D01*
X134506635Y-147249485D01*
X134506632Y-147249487D01*
X134399486Y-147356633D01*
X134399482Y-147356638D01*
X134392923Y-147368000D01*
X134342356Y-147416216D01*
X134285536Y-147430000D01*
X133730000Y-147430000D01*
X133730000Y-146930000D01*
X134430000Y-146930000D01*
X134430000Y-146531508D01*
X134429999Y-146531504D01*
X134391572Y-146338318D01*
X134391569Y-146338306D01*
X134316192Y-146156328D01*
X134316185Y-146156315D01*
X134206751Y-145992537D01*
X134206748Y-145992533D01*
X134067466Y-145853251D01*
X134067462Y-145853248D01*
X133903684Y-145743814D01*
X133903671Y-145743807D01*
X133721691Y-145668429D01*
X133721683Y-145668427D01*
X133680000Y-145660135D01*
X133680000Y-146463011D01*
X133670060Y-146445795D01*
X133614205Y-146389940D01*
X133545796Y-146350444D01*
X133469496Y-146330000D01*
X133390504Y-146330000D01*
X133314204Y-146350444D01*
X133245795Y-146389940D01*
X133189940Y-146445795D01*
X133180000Y-146463011D01*
X133180000Y-145660136D01*
X133179999Y-145660135D01*
X133138316Y-145668427D01*
X133138308Y-145668429D01*
X132956328Y-145743807D01*
X132956315Y-145743814D01*
X132792537Y-145853248D01*
X132792533Y-145853251D01*
X132653251Y-145992533D01*
X132653248Y-145992537D01*
X132543814Y-146156315D01*
X132543807Y-146156328D01*
X132468430Y-146338306D01*
X132468427Y-146338318D01*
X132430000Y-146531504D01*
X121873955Y-146531504D01*
X121900000Y-144500000D01*
X121809397Y-142368460D01*
X132464418Y-142368460D01*
X132464418Y-142519044D01*
X132503392Y-142664497D01*
X132503393Y-142664498D01*
X132503393Y-142664499D01*
X132578681Y-142794903D01*
X132578683Y-142794906D01*
X132578684Y-142794907D01*
X132685163Y-142901386D01*
X132815573Y-142976678D01*
X132961026Y-143015652D01*
X132961028Y-143015652D01*
X133111607Y-143015652D01*
X133111610Y-143015652D01*
X133257063Y-142976678D01*
X133387473Y-142901386D01*
X133493952Y-142794907D01*
X133569244Y-142664497D01*
X133608218Y-142519044D01*
X133608218Y-142368460D01*
X133569244Y-142223007D01*
X133493952Y-142092597D01*
X133387473Y-141986118D01*
X133387472Y-141986117D01*
X133387469Y-141986115D01*
X133257065Y-141910827D01*
X133257064Y-141910826D01*
X133257063Y-141910826D01*
X133111610Y-141871852D01*
X132961026Y-141871852D01*
X132815573Y-141910826D01*
X132815571Y-141910827D01*
X132815570Y-141910827D01*
X132685166Y-141986115D01*
X132685161Y-141986119D01*
X132578685Y-142092595D01*
X132578681Y-142092600D01*
X132503393Y-142223004D01*
X132503393Y-142223005D01*
X132503392Y-142223007D01*
X132464418Y-142368460D01*
X121809397Y-142368460D01*
X121602849Y-137509142D01*
X121604263Y-137484494D01*
X121619500Y-137388295D01*
X121619500Y-137211705D01*
X121591875Y-137037288D01*
X121586662Y-137021245D01*
X121580706Y-136988195D01*
X121508225Y-135282988D01*
X121521629Y-135221426D01*
X121537303Y-135190664D01*
X121537303Y-135190663D01*
X121537305Y-135190660D01*
X121591875Y-135022712D01*
X121619500Y-134848295D01*
X121619500Y-134671705D01*
X121591875Y-134497288D01*
X121537305Y-134329340D01*
X121473609Y-134204329D01*
X121460207Y-134153302D01*
X121442828Y-133744432D01*
X121407850Y-132921542D01*
X121424670Y-132853731D01*
X121431410Y-132843409D01*
X121457135Y-132808003D01*
X121537305Y-132650659D01*
X121591875Y-132482711D01*
X121604784Y-132401204D01*
X126141262Y-132401204D01*
X126141262Y-132551788D01*
X126180236Y-132697241D01*
X126180237Y-132697242D01*
X126180237Y-132697243D01*
X126255525Y-132827647D01*
X126255527Y-132827650D01*
X126255528Y-132827651D01*
X126362007Y-132934130D01*
X126492417Y-133009422D01*
X126637870Y-133048396D01*
X126637872Y-133048396D01*
X126788451Y-133048396D01*
X126788454Y-133048396D01*
X126933907Y-133009422D01*
X127064317Y-132934130D01*
X127122135Y-132876312D01*
X127183458Y-132842827D01*
X127209816Y-132839993D01*
X130072261Y-132839993D01*
X130139300Y-132859678D01*
X130185055Y-132912482D01*
X130194999Y-132981640D01*
X130192036Y-132996086D01*
X130166189Y-133092549D01*
X130166189Y-133607338D01*
X130146504Y-133674377D01*
X130129870Y-133695019D01*
X130080456Y-133744432D01*
X130080452Y-133744437D01*
X130005164Y-133874841D01*
X130005164Y-133874842D01*
X130005163Y-133874844D01*
X129966189Y-134020297D01*
X129966189Y-134170881D01*
X130005163Y-134316334D01*
X130005164Y-134316335D01*
X130005164Y-134316336D01*
X130080452Y-134446740D01*
X130080454Y-134446743D01*
X130080455Y-134446744D01*
X130186934Y-134553223D01*
X130317344Y-134628515D01*
X130462797Y-134667489D01*
X130462799Y-134667489D01*
X130613378Y-134667489D01*
X130613381Y-134667489D01*
X130758834Y-134628515D01*
X130889244Y-134553223D01*
X130995723Y-134446744D01*
X131071015Y-134316334D01*
X131109989Y-134170881D01*
X131109989Y-134020297D01*
X131071015Y-133874844D01*
X130995723Y-133744434D01*
X130946308Y-133695019D01*
X130912823Y-133633696D01*
X130909989Y-133607338D01*
X130909989Y-133346919D01*
X130929674Y-133279880D01*
X130946308Y-133259238D01*
X131129234Y-133076312D01*
X131190557Y-133042827D01*
X131216915Y-133039993D01*
X131286796Y-133039993D01*
X131286799Y-133039993D01*
X131432252Y-133001019D01*
X131457612Y-132986376D01*
X131525512Y-132969904D01*
X131591539Y-132992756D01*
X131607294Y-133006083D01*
X131670684Y-133069473D01*
X131670685Y-133069474D01*
X131670687Y-133069475D01*
X131710653Y-133092549D01*
X131801094Y-133144765D01*
X131946547Y-133183739D01*
X131946549Y-133183739D01*
X132097128Y-133183739D01*
X132097131Y-133183739D01*
X132242584Y-133144765D01*
X132372994Y-133069473D01*
X132479473Y-132962994D01*
X132554765Y-132832584D01*
X132593739Y-132687131D01*
X132593739Y-132624708D01*
X144778100Y-132624708D01*
X144778100Y-132775292D01*
X144817074Y-132920745D01*
X144817075Y-132920746D01*
X144817075Y-132920747D01*
X144892363Y-133051151D01*
X144892365Y-133051154D01*
X144892366Y-133051155D01*
X144998845Y-133157634D01*
X145129255Y-133232926D01*
X145274708Y-133271900D01*
X145274710Y-133271900D01*
X145425289Y-133271900D01*
X145425292Y-133271900D01*
X145570745Y-133232926D01*
X145701155Y-133157634D01*
X145807634Y-133051155D01*
X145882926Y-132920745D01*
X145921900Y-132775292D01*
X145921900Y-132624708D01*
X145882926Y-132479255D01*
X145807634Y-132348845D01*
X145701155Y-132242366D01*
X145701154Y-132242365D01*
X145701151Y-132242363D01*
X145570747Y-132167075D01*
X145570746Y-132167074D01*
X145570745Y-132167074D01*
X145425292Y-132128100D01*
X145274708Y-132128100D01*
X145129255Y-132167074D01*
X145129253Y-132167075D01*
X145129252Y-132167075D01*
X144998848Y-132242363D01*
X144998843Y-132242367D01*
X144892367Y-132348843D01*
X144892363Y-132348848D01*
X144817075Y-132479252D01*
X144817075Y-132479253D01*
X144817074Y-132479255D01*
X144778100Y-132624708D01*
X132593739Y-132624708D01*
X132593739Y-132536547D01*
X132554765Y-132391094D01*
X132479473Y-132260684D01*
X132372994Y-132154205D01*
X132372993Y-132154204D01*
X132372990Y-132154202D01*
X132242586Y-132078914D01*
X132242585Y-132078913D01*
X132242584Y-132078913D01*
X132097131Y-132039939D01*
X131946547Y-132039939D01*
X131801094Y-132078913D01*
X131801092Y-132078914D01*
X131801091Y-132078914D01*
X131775730Y-132093556D01*
X131707830Y-132110026D01*
X131641803Y-132087173D01*
X131626052Y-132073849D01*
X131612077Y-132059874D01*
X131562662Y-132010459D01*
X131562659Y-132010457D01*
X131562658Y-132010456D01*
X131432254Y-131935168D01*
X131432253Y-131935167D01*
X131432252Y-131935167D01*
X131286799Y-131896193D01*
X131136215Y-131896193D01*
X130990762Y-131935167D01*
X130990760Y-131935168D01*
X130990759Y-131935168D01*
X130860355Y-132010456D01*
X130860350Y-132010460D01*
X130810937Y-132059874D01*
X130749614Y-132093359D01*
X130723256Y-132096193D01*
X128106894Y-132096193D01*
X128039855Y-132076508D01*
X127994100Y-132023704D01*
X127984156Y-131954546D01*
X128013181Y-131890990D01*
X128044894Y-131864806D01*
X128062970Y-131854369D01*
X128134242Y-131813221D01*
X128240721Y-131706742D01*
X128316013Y-131576332D01*
X128354987Y-131430879D01*
X128354987Y-131280295D01*
X128316013Y-131134842D01*
X128278367Y-131069637D01*
X128240723Y-131004435D01*
X128240719Y-131004430D01*
X128134243Y-130897954D01*
X128134238Y-130897950D01*
X128006098Y-130823969D01*
X128003832Y-130822661D01*
X127858379Y-130783687D01*
X127707795Y-130783687D01*
X127562342Y-130822661D01*
X127562340Y-130822662D01*
X127562339Y-130822662D01*
X127431935Y-130897950D01*
X127431930Y-130897954D01*
X127325454Y-131004430D01*
X127325450Y-131004435D01*
X127250162Y-131134839D01*
X127250162Y-131134840D01*
X127250161Y-131134842D01*
X127211187Y-131280295D01*
X127211187Y-131280297D01*
X127211187Y-131350179D01*
X127191502Y-131417218D01*
X127174868Y-131437860D01*
X126744451Y-131868277D01*
X126683128Y-131901762D01*
X126656770Y-131904596D01*
X126637870Y-131904596D01*
X126492417Y-131943570D01*
X126492415Y-131943571D01*
X126492414Y-131943571D01*
X126362010Y-132018859D01*
X126362005Y-132018863D01*
X126255529Y-132125339D01*
X126255525Y-132125344D01*
X126180237Y-132255748D01*
X126180237Y-132255749D01*
X126180236Y-132255751D01*
X126141262Y-132401204D01*
X121604784Y-132401204D01*
X121619500Y-132308294D01*
X121619500Y-132131704D01*
X121591875Y-131957287D01*
X121537305Y-131789339D01*
X121457135Y-131631995D01*
X121368549Y-131510067D01*
X121345070Y-131444264D01*
X121344987Y-131442604D01*
X121307210Y-130553853D01*
X125044933Y-130553853D01*
X125044933Y-130704437D01*
X125083907Y-130849890D01*
X125083908Y-130849891D01*
X125083908Y-130849892D01*
X125159196Y-130980296D01*
X125159198Y-130980299D01*
X125159199Y-130980300D01*
X125265678Y-131086779D01*
X125396088Y-131162071D01*
X125541541Y-131201045D01*
X125541543Y-131201045D01*
X125692122Y-131201045D01*
X125692125Y-131201045D01*
X125837578Y-131162071D01*
X125967988Y-131086779D01*
X126074467Y-130980300D01*
X126149759Y-130849890D01*
X126183301Y-130724708D01*
X132224595Y-130724708D01*
X132224595Y-130875292D01*
X132263569Y-131020745D01*
X132263570Y-131020746D01*
X132263570Y-131020747D01*
X132338858Y-131151151D01*
X132338860Y-131151154D01*
X132338861Y-131151155D01*
X132445340Y-131257634D01*
X132445341Y-131257635D01*
X132445343Y-131257636D01*
X132510545Y-131295280D01*
X132575750Y-131332926D01*
X132721203Y-131371900D01*
X132721205Y-131371900D01*
X132871784Y-131371900D01*
X132871787Y-131371900D01*
X133017240Y-131332926D01*
X133147650Y-131257634D01*
X133254129Y-131151155D01*
X133329421Y-131020745D01*
X133368395Y-130875292D01*
X133368395Y-130724708D01*
X133329421Y-130579255D01*
X133254129Y-130448845D01*
X133147650Y-130342366D01*
X133147649Y-130342365D01*
X133147646Y-130342363D01*
X133017242Y-130267075D01*
X133017241Y-130267074D01*
X133017240Y-130267074D01*
X132871787Y-130228100D01*
X132721203Y-130228100D01*
X132575750Y-130267074D01*
X132575748Y-130267075D01*
X132575747Y-130267075D01*
X132445343Y-130342363D01*
X132445338Y-130342367D01*
X132338862Y-130448843D01*
X132338858Y-130448848D01*
X132263570Y-130579252D01*
X132263570Y-130579253D01*
X132263569Y-130579255D01*
X132224595Y-130724708D01*
X126183301Y-130724708D01*
X126188733Y-130704437D01*
X126188733Y-130553853D01*
X126149759Y-130408400D01*
X126074467Y-130277990D01*
X125967988Y-130171511D01*
X125967987Y-130171510D01*
X125967984Y-130171508D01*
X125837580Y-130096220D01*
X125837579Y-130096219D01*
X125837578Y-130096219D01*
X125692125Y-130057245D01*
X125541541Y-130057245D01*
X125396088Y-130096219D01*
X125396086Y-130096220D01*
X125396085Y-130096220D01*
X125265681Y-130171508D01*
X125265676Y-130171512D01*
X125159200Y-130277988D01*
X125159196Y-130277993D01*
X125083908Y-130408397D01*
X125083908Y-130408398D01*
X125083907Y-130408400D01*
X125044933Y-130553853D01*
X121307210Y-130553853D01*
X121305574Y-130515367D01*
X121322394Y-130447556D01*
X121341783Y-130422422D01*
X121353337Y-130410869D01*
X121457135Y-130268004D01*
X121537305Y-130110660D01*
X121591875Y-129942712D01*
X121619500Y-129768295D01*
X121619500Y-129591705D01*
X121591875Y-129417288D01*
X121537305Y-129249340D01*
X121457135Y-129091996D01*
X121353337Y-128949131D01*
X121268080Y-128863874D01*
X121234595Y-128802551D01*
X121231874Y-128781471D01*
X121202012Y-128078930D01*
X121218832Y-128011118D01*
X121238212Y-127985993D01*
X121353337Y-127870869D01*
X121406500Y-127797697D01*
X127801089Y-127797697D01*
X127801089Y-127948281D01*
X127840063Y-128093734D01*
X127840064Y-128093735D01*
X127840064Y-128093736D01*
X127915352Y-128224140D01*
X127915354Y-128224143D01*
X127915355Y-128224144D01*
X128021834Y-128330623D01*
X128152244Y-128405915D01*
X128297697Y-128444889D01*
X128297699Y-128444889D01*
X128448278Y-128444889D01*
X128448281Y-128444889D01*
X128593734Y-128405915D01*
X128724144Y-128330623D01*
X128830623Y-128224144D01*
X128905915Y-128093734D01*
X128944889Y-127948281D01*
X128944889Y-127797697D01*
X128905915Y-127652244D01*
X128832019Y-127524252D01*
X128830625Y-127521837D01*
X128830621Y-127521832D01*
X128724145Y-127415356D01*
X128724140Y-127415352D01*
X128593736Y-127340064D01*
X128593735Y-127340063D01*
X128593734Y-127340063D01*
X128448281Y-127301089D01*
X128297697Y-127301089D01*
X128152244Y-127340063D01*
X128152242Y-127340064D01*
X128152241Y-127340064D01*
X128021837Y-127415352D01*
X128021832Y-127415356D01*
X127915356Y-127521832D01*
X127915352Y-127521837D01*
X127840064Y-127652241D01*
X127840064Y-127652242D01*
X127840063Y-127652244D01*
X127801089Y-127797697D01*
X121406500Y-127797697D01*
X121457135Y-127728004D01*
X121537305Y-127570660D01*
X121591875Y-127402712D01*
X121619500Y-127228295D01*
X121619500Y-127051705D01*
X121591875Y-126877288D01*
X121537305Y-126709340D01*
X121457135Y-126551996D01*
X121353337Y-126409131D01*
X121343005Y-126398799D01*
X127885396Y-126398799D01*
X127885396Y-126549383D01*
X127924370Y-126694836D01*
X127924371Y-126694837D01*
X127924371Y-126694838D01*
X127999659Y-126825242D01*
X127999661Y-126825245D01*
X127999662Y-126825246D01*
X128106141Y-126931725D01*
X128106142Y-126931726D01*
X128106144Y-126931727D01*
X128141870Y-126952353D01*
X128236551Y-127007017D01*
X128382004Y-127045991D01*
X128382006Y-127045991D01*
X128532585Y-127045991D01*
X128532588Y-127045991D01*
X128678041Y-127007017D01*
X128808451Y-126931725D01*
X128914930Y-126825246D01*
X128990222Y-126694836D01*
X129029196Y-126549383D01*
X129029196Y-126398799D01*
X128994499Y-126269309D01*
X130178007Y-126269309D01*
X130178007Y-126419893D01*
X130216981Y-126565346D01*
X130216982Y-126565347D01*
X130216982Y-126565348D01*
X130292270Y-126695752D01*
X130292272Y-126695755D01*
X130292273Y-126695756D01*
X130398752Y-126802235D01*
X130398753Y-126802236D01*
X130398755Y-126802237D01*
X130407606Y-126807347D01*
X130529162Y-126877527D01*
X130674615Y-126916501D01*
X130674617Y-126916501D01*
X130825196Y-126916501D01*
X130825199Y-126916501D01*
X130970652Y-126877527D01*
X131101062Y-126802235D01*
X131207541Y-126695756D01*
X131282833Y-126565346D01*
X131321807Y-126419893D01*
X131321807Y-126274419D01*
X132087905Y-126274419D01*
X132087905Y-126425003D01*
X132126879Y-126570456D01*
X132126880Y-126570457D01*
X132126880Y-126570458D01*
X132202168Y-126700862D01*
X132202170Y-126700865D01*
X132202171Y-126700866D01*
X132308650Y-126807345D01*
X132308651Y-126807346D01*
X132308653Y-126807347D01*
X132339657Y-126825247D01*
X132439060Y-126882637D01*
X132584513Y-126921611D01*
X132584515Y-126921611D01*
X132743224Y-126921611D01*
X132743224Y-126924625D01*
X132798050Y-126933165D01*
X132850313Y-126979536D01*
X132869210Y-127046802D01*
X132864994Y-127077441D01*
X132863569Y-127082760D01*
X132824595Y-127228213D01*
X132824595Y-127378797D01*
X132863569Y-127524250D01*
X132863570Y-127524251D01*
X132863570Y-127524252D01*
X132938858Y-127654656D01*
X132938860Y-127654659D01*
X132938861Y-127654660D01*
X133045340Y-127761139D01*
X133175750Y-127836431D01*
X133321203Y-127875405D01*
X133321205Y-127875405D01*
X133471784Y-127875405D01*
X133471787Y-127875405D01*
X133474388Y-127874708D01*
X139178100Y-127874708D01*
X139178100Y-128025292D01*
X139217074Y-128170745D01*
X139217075Y-128170746D01*
X139217075Y-128170747D01*
X139292363Y-128301151D01*
X139292365Y-128301154D01*
X139292366Y-128301155D01*
X139398845Y-128407634D01*
X139529255Y-128482926D01*
X139674708Y-128521900D01*
X139674710Y-128521900D01*
X139825289Y-128521900D01*
X139825292Y-128521900D01*
X139970745Y-128482926D01*
X140101155Y-128407634D01*
X140207634Y-128301155D01*
X140282926Y-128170745D01*
X140321900Y-128025292D01*
X140321900Y-127874708D01*
X140282926Y-127729255D01*
X140207634Y-127598845D01*
X140101155Y-127492366D01*
X140101154Y-127492365D01*
X140101151Y-127492363D01*
X139970747Y-127417075D01*
X139970746Y-127417074D01*
X139970745Y-127417074D01*
X139825292Y-127378100D01*
X139674708Y-127378100D01*
X139529255Y-127417074D01*
X139529253Y-127417075D01*
X139529252Y-127417075D01*
X139398848Y-127492363D01*
X139398843Y-127492367D01*
X139292367Y-127598843D01*
X139292363Y-127598848D01*
X139217075Y-127729252D01*
X139217075Y-127729253D01*
X139217074Y-127729255D01*
X139178100Y-127874708D01*
X133474388Y-127874708D01*
X133617240Y-127836431D01*
X133747650Y-127761139D01*
X133854129Y-127654660D01*
X133929421Y-127524250D01*
X133968395Y-127378797D01*
X133968395Y-127228213D01*
X133929421Y-127082760D01*
X133854129Y-126952350D01*
X133747650Y-126845871D01*
X133747649Y-126845870D01*
X133747646Y-126845868D01*
X133617242Y-126770580D01*
X133617241Y-126770579D01*
X133617240Y-126770579D01*
X133471787Y-126731605D01*
X133321203Y-126731605D01*
X133313076Y-126731605D01*
X133313076Y-126728601D01*
X133258187Y-126720020D01*
X133205949Y-126673620D01*
X133187089Y-126606344D01*
X133191305Y-126575773D01*
X133192728Y-126570460D01*
X133192731Y-126570456D01*
X133231705Y-126425003D01*
X133231705Y-126274419D01*
X133192731Y-126128966D01*
X133127774Y-126016457D01*
X133117441Y-125998559D01*
X133117437Y-125998554D01*
X133010961Y-125892078D01*
X133010956Y-125892074D01*
X132880552Y-125816786D01*
X132880551Y-125816785D01*
X132880550Y-125816785D01*
X132735097Y-125777811D01*
X132584513Y-125777811D01*
X132439060Y-125816785D01*
X132439058Y-125816786D01*
X132439057Y-125816786D01*
X132308653Y-125892074D01*
X132308648Y-125892078D01*
X132202172Y-125998554D01*
X132202168Y-125998559D01*
X132126880Y-126128963D01*
X132126880Y-126128964D01*
X132126879Y-126128966D01*
X132087905Y-126274419D01*
X131321807Y-126274419D01*
X131321807Y-126269309D01*
X131282833Y-126123856D01*
X131220827Y-126016458D01*
X131207543Y-125993449D01*
X131207539Y-125993444D01*
X131101063Y-125886968D01*
X131101058Y-125886964D01*
X130970654Y-125811676D01*
X130970653Y-125811675D01*
X130970652Y-125811675D01*
X130825199Y-125772701D01*
X130674615Y-125772701D01*
X130529162Y-125811675D01*
X130529160Y-125811676D01*
X130529159Y-125811676D01*
X130398755Y-125886964D01*
X130398750Y-125886968D01*
X130292274Y-125993444D01*
X130292270Y-125993449D01*
X130216982Y-126123853D01*
X130216982Y-126123854D01*
X130216981Y-126123856D01*
X130178007Y-126269309D01*
X128994499Y-126269309D01*
X128990222Y-126253346D01*
X128929053Y-126147397D01*
X128914932Y-126122939D01*
X128914928Y-126122934D01*
X128808452Y-126016458D01*
X128808447Y-126016454D01*
X128678043Y-125941166D01*
X128678042Y-125941165D01*
X128678041Y-125941165D01*
X128532588Y-125902191D01*
X128382004Y-125902191D01*
X128236551Y-125941165D01*
X128236549Y-125941166D01*
X128236548Y-125941166D01*
X128106144Y-126016454D01*
X128106139Y-126016458D01*
X127999663Y-126122934D01*
X127999659Y-126122939D01*
X127924371Y-126253343D01*
X127924371Y-126253344D01*
X127924370Y-126253346D01*
X127885396Y-126398799D01*
X121343005Y-126398799D01*
X121228469Y-126284263D01*
X121214920Y-126274419D01*
X121170913Y-126242445D01*
X121128247Y-126187115D01*
X121119911Y-126147397D01*
X121099819Y-125674708D01*
X136278100Y-125674708D01*
X136278100Y-125825292D01*
X136317074Y-125970745D01*
X136317075Y-125970746D01*
X136317075Y-125970747D01*
X136392363Y-126101151D01*
X136392365Y-126101154D01*
X136392366Y-126101155D01*
X136498845Y-126207634D01*
X136629255Y-126282926D01*
X136774708Y-126321900D01*
X136774710Y-126321900D01*
X136925289Y-126321900D01*
X136925292Y-126321900D01*
X137070745Y-126282926D01*
X137201155Y-126207634D01*
X137307634Y-126101155D01*
X137382926Y-125970745D01*
X137421900Y-125825292D01*
X137421900Y-125674708D01*
X137382926Y-125529255D01*
X137307634Y-125398845D01*
X137201155Y-125292366D01*
X137201154Y-125292365D01*
X137201151Y-125292363D01*
X137070747Y-125217075D01*
X137070746Y-125217074D01*
X137070745Y-125217074D01*
X136925292Y-125178100D01*
X136774708Y-125178100D01*
X136629255Y-125217074D01*
X136629253Y-125217075D01*
X136629252Y-125217075D01*
X136498848Y-125292363D01*
X136498843Y-125292367D01*
X136392367Y-125398843D01*
X136392363Y-125398848D01*
X136317075Y-125529252D01*
X136317075Y-125529253D01*
X136317074Y-125529255D01*
X136278100Y-125674708D01*
X121099819Y-125674708D01*
X121097470Y-125619438D01*
X121114290Y-125551626D01*
X121148470Y-125513859D01*
X121228469Y-125455737D01*
X121353337Y-125330869D01*
X121457135Y-125188004D01*
X121537305Y-125030660D01*
X121591875Y-124862712D01*
X121619500Y-124688295D01*
X121619500Y-124511705D01*
X121591875Y-124337288D01*
X121537305Y-124169340D01*
X121457135Y-124011996D01*
X121353337Y-123869131D01*
X121228469Y-123744263D01*
X121201554Y-123724708D01*
X123328100Y-123724708D01*
X123328100Y-123875292D01*
X123367074Y-124020745D01*
X123367075Y-124020746D01*
X123367075Y-124020747D01*
X123442363Y-124151151D01*
X123442365Y-124151154D01*
X123442366Y-124151155D01*
X123548845Y-124257634D01*
X123679255Y-124332926D01*
X123824708Y-124371900D01*
X123824710Y-124371900D01*
X123975289Y-124371900D01*
X123975292Y-124371900D01*
X124120745Y-124332926D01*
X124251155Y-124257634D01*
X124357634Y-124151155D01*
X124432926Y-124020745D01*
X124471900Y-123875292D01*
X124471900Y-123724708D01*
X124432926Y-123579255D01*
X124374524Y-123478100D01*
X124357636Y-123448848D01*
X124357632Y-123448843D01*
X124251156Y-123342367D01*
X124251151Y-123342363D01*
X124120747Y-123267075D01*
X124120746Y-123267074D01*
X124120745Y-123267074D01*
X123975292Y-123228100D01*
X123824708Y-123228100D01*
X123679255Y-123267074D01*
X123679253Y-123267075D01*
X123679252Y-123267075D01*
X123548848Y-123342363D01*
X123548843Y-123342367D01*
X123442367Y-123448843D01*
X123442363Y-123448848D01*
X123367075Y-123579252D01*
X123367075Y-123579253D01*
X123367074Y-123579255D01*
X123328100Y-123724708D01*
X121201554Y-123724708D01*
X121085604Y-123640465D01*
X121085603Y-123640464D01*
X121085601Y-123640463D01*
X121076269Y-123635708D01*
X121025473Y-123587733D01*
X121008678Y-123530496D01*
X120992433Y-123148314D01*
X121009253Y-123080503D01*
X121060026Y-123032568D01*
X121085604Y-123019536D01*
X121228469Y-122915738D01*
X121353337Y-122790870D01*
X121457135Y-122648005D01*
X121537305Y-122490661D01*
X121591875Y-122322713D01*
X121619500Y-122148296D01*
X121619500Y-121971706D01*
X121591875Y-121797289D01*
X121561794Y-121704709D01*
X125740838Y-121704709D01*
X125740838Y-121855293D01*
X125779812Y-122000746D01*
X125779813Y-122000747D01*
X125779813Y-122000748D01*
X125855101Y-122131152D01*
X125855103Y-122131155D01*
X125855104Y-122131156D01*
X125961583Y-122237635D01*
X126091993Y-122312927D01*
X126237446Y-122351901D01*
X126237448Y-122351901D01*
X126388027Y-122351901D01*
X126388030Y-122351901D01*
X126533483Y-122312927D01*
X126663893Y-122237635D01*
X126770372Y-122131156D01*
X126845664Y-122000746D01*
X126884638Y-121855293D01*
X126884638Y-121704709D01*
X126845664Y-121559256D01*
X126795285Y-121471996D01*
X126770374Y-121428849D01*
X126770370Y-121428844D01*
X126663894Y-121322368D01*
X126663889Y-121322364D01*
X126533485Y-121247076D01*
X126533484Y-121247075D01*
X126533483Y-121247075D01*
X126388030Y-121208101D01*
X126237446Y-121208101D01*
X126091993Y-121247075D01*
X126091991Y-121247076D01*
X126091990Y-121247076D01*
X125961586Y-121322364D01*
X125961581Y-121322368D01*
X125855105Y-121428844D01*
X125855101Y-121428849D01*
X125779813Y-121559253D01*
X125779813Y-121559254D01*
X125779812Y-121559256D01*
X125740838Y-121704709D01*
X121561794Y-121704709D01*
X121537305Y-121629341D01*
X121457135Y-121471997D01*
X121353337Y-121329132D01*
X121228469Y-121204264D01*
X121085604Y-121100466D01*
X120965917Y-121039483D01*
X120915121Y-120991509D01*
X120898324Y-120934264D01*
X120886758Y-120662159D01*
X120903578Y-120594346D01*
X120954350Y-120546411D01*
X121085604Y-120479535D01*
X121228469Y-120375737D01*
X121353337Y-120250869D01*
X121457135Y-120108004D01*
X121537305Y-119950660D01*
X121591875Y-119782712D01*
X121619500Y-119608295D01*
X121619500Y-119431705D01*
X121591875Y-119257288D01*
X121537305Y-119089340D01*
X121457135Y-118931996D01*
X121353337Y-118789131D01*
X121228469Y-118664263D01*
X121085604Y-118560465D01*
X121080866Y-118558051D01*
X120928260Y-118480294D01*
X120874047Y-118462679D01*
X120855754Y-118450170D01*
X120835218Y-118441827D01*
X120827472Y-118430831D01*
X120816372Y-118423241D01*
X120807744Y-118402825D01*
X120794981Y-118384706D01*
X120790910Y-118362989D01*
X120789175Y-118358882D01*
X120788479Y-118350016D01*
X120787561Y-118328419D01*
X120783153Y-118224708D01*
X126728100Y-118224708D01*
X126728100Y-118375292D01*
X126767074Y-118520745D01*
X126767075Y-118520746D01*
X126767075Y-118520747D01*
X126842363Y-118651151D01*
X126842365Y-118651154D01*
X126842366Y-118651155D01*
X126948845Y-118757634D01*
X127079255Y-118832926D01*
X127224708Y-118871900D01*
X127224710Y-118871900D01*
X127375289Y-118871900D01*
X127375292Y-118871900D01*
X127520745Y-118832926D01*
X127651155Y-118757634D01*
X127757634Y-118651155D01*
X127832926Y-118520745D01*
X127871900Y-118375292D01*
X127871900Y-118374708D01*
X134228100Y-118374708D01*
X134228100Y-118525292D01*
X134267074Y-118670745D01*
X134267075Y-118670746D01*
X134267075Y-118670747D01*
X134342363Y-118801151D01*
X134342365Y-118801154D01*
X134342366Y-118801155D01*
X134448845Y-118907634D01*
X134448846Y-118907635D01*
X134448848Y-118907636D01*
X134491041Y-118931996D01*
X134579255Y-118982926D01*
X134710037Y-119017969D01*
X134769697Y-119054333D01*
X134797718Y-119105649D01*
X134832761Y-119236434D01*
X134832762Y-119236435D01*
X134908050Y-119366839D01*
X134908052Y-119366842D01*
X134908053Y-119366843D01*
X135014532Y-119473322D01*
X135116989Y-119532475D01*
X135165204Y-119583041D01*
X135178428Y-119651648D01*
X135152460Y-119716513D01*
X135116990Y-119747249D01*
X135038846Y-119792365D01*
X134932368Y-119898843D01*
X134932364Y-119898848D01*
X134857076Y-120029252D01*
X134857076Y-120029253D01*
X134857075Y-120029255D01*
X134818101Y-120174708D01*
X134818101Y-120325292D01*
X134857075Y-120470745D01*
X134857076Y-120470746D01*
X134857076Y-120470747D01*
X134932364Y-120601151D01*
X134932366Y-120601154D01*
X134932367Y-120601155D01*
X135038846Y-120707634D01*
X135038847Y-120707635D01*
X135038849Y-120707636D01*
X135061558Y-120720747D01*
X135169256Y-120782926D01*
X135314709Y-120821900D01*
X135314711Y-120821900D01*
X135465290Y-120821900D01*
X135465293Y-120821900D01*
X135610746Y-120782926D01*
X135741156Y-120707634D01*
X135835677Y-120613112D01*
X135896996Y-120579630D01*
X135966688Y-120584614D01*
X136022622Y-120626485D01*
X136043129Y-120668701D01*
X136057073Y-120720740D01*
X136057076Y-120720747D01*
X136132364Y-120851151D01*
X136132366Y-120851154D01*
X136132367Y-120851155D01*
X136238846Y-120957634D01*
X136238847Y-120957635D01*
X136238849Y-120957636D01*
X136297519Y-120991509D01*
X136369256Y-121032926D01*
X136514709Y-121071900D01*
X136514711Y-121071900D01*
X136665290Y-121071900D01*
X136665293Y-121071900D01*
X136810746Y-121032926D01*
X136941156Y-120957634D01*
X137047635Y-120851155D01*
X137122927Y-120720745D01*
X137161901Y-120575292D01*
X137161901Y-120424708D01*
X137122927Y-120279255D01*
X137060062Y-120170369D01*
X137047637Y-120148848D01*
X137047633Y-120148843D01*
X136941157Y-120042367D01*
X136941152Y-120042363D01*
X136810748Y-119967075D01*
X136810747Y-119967074D01*
X136810746Y-119967074D01*
X136665293Y-119928100D01*
X136514709Y-119928100D01*
X136369256Y-119967074D01*
X136369254Y-119967075D01*
X136369253Y-119967075D01*
X136238849Y-120042363D01*
X136144327Y-120136885D01*
X136083003Y-120170369D01*
X136013312Y-120165385D01*
X135957379Y-120123513D01*
X135936872Y-120081299D01*
X135922927Y-120029255D01*
X135885281Y-119964050D01*
X135847637Y-119898848D01*
X135847633Y-119898843D01*
X135741157Y-119792367D01*
X135741152Y-119792363D01*
X135638698Y-119733212D01*
X135590483Y-119682646D01*
X135577259Y-119614039D01*
X135603227Y-119549174D01*
X135638696Y-119518439D01*
X135716842Y-119473322D01*
X135823321Y-119366843D01*
X135898613Y-119236433D01*
X135937587Y-119090980D01*
X135937587Y-118940396D01*
X135898613Y-118794943D01*
X135826908Y-118670746D01*
X135823323Y-118664536D01*
X135823319Y-118664531D01*
X135716843Y-118558055D01*
X135716838Y-118558051D01*
X135586434Y-118482763D01*
X135586433Y-118482762D01*
X135509363Y-118462111D01*
X135455648Y-118447718D01*
X135395989Y-118411354D01*
X135367969Y-118360040D01*
X135332926Y-118229255D01*
X135262732Y-118107675D01*
X135257636Y-118098848D01*
X135257632Y-118098843D01*
X135151156Y-117992367D01*
X135151151Y-117992363D01*
X135020747Y-117917075D01*
X135020746Y-117917074D01*
X135020745Y-117917074D01*
X134875292Y-117878100D01*
X134724708Y-117878100D01*
X134579255Y-117917074D01*
X134579253Y-117917075D01*
X134579252Y-117917075D01*
X134448848Y-117992363D01*
X134448843Y-117992367D01*
X134342367Y-118098843D01*
X134342363Y-118098848D01*
X134267075Y-118229252D01*
X134267075Y-118229253D01*
X134267074Y-118229255D01*
X134228100Y-118374708D01*
X127871900Y-118374708D01*
X127871900Y-118224708D01*
X127832926Y-118079255D01*
X127757634Y-117948845D01*
X127651155Y-117842366D01*
X127651154Y-117842365D01*
X127651151Y-117842363D01*
X127543977Y-117780487D01*
X127520747Y-117767075D01*
X127520746Y-117767074D01*
X127520745Y-117767074D01*
X127375292Y-117728100D01*
X127224708Y-117728100D01*
X127079255Y-117767074D01*
X127079253Y-117767075D01*
X127079252Y-117767075D01*
X126948848Y-117842363D01*
X126948843Y-117842367D01*
X126842367Y-117948843D01*
X126842363Y-117948848D01*
X126767075Y-118079252D01*
X126767075Y-118079253D01*
X126767074Y-118079255D01*
X126728100Y-118224708D01*
X120783153Y-118224708D01*
X120780534Y-118163092D01*
X120797353Y-118095282D01*
X120848166Y-118047326D01*
X120866087Y-118039906D01*
X120928260Y-118019705D01*
X121085604Y-117939535D01*
X121228469Y-117835737D01*
X121353337Y-117710869D01*
X121374873Y-117681227D01*
X129243196Y-117681227D01*
X129243196Y-117831811D01*
X129282170Y-117977264D01*
X129282171Y-117977265D01*
X129282171Y-117977266D01*
X129357459Y-118107670D01*
X129357461Y-118107673D01*
X129357462Y-118107674D01*
X129463941Y-118214153D01*
X129463942Y-118214154D01*
X129463944Y-118214155D01*
X129499919Y-118234925D01*
X129594351Y-118289445D01*
X129739804Y-118328419D01*
X129739806Y-118328419D01*
X129890385Y-118328419D01*
X129890388Y-118328419D01*
X130035841Y-118289445D01*
X130088236Y-118259194D01*
X130088238Y-118259194D01*
X130140099Y-118229252D01*
X130166251Y-118214153D01*
X130272730Y-118107674D01*
X130348022Y-117977264D01*
X130386996Y-117831811D01*
X130386996Y-117681227D01*
X130348022Y-117535774D01*
X130272730Y-117405364D01*
X130166251Y-117298885D01*
X130166250Y-117298884D01*
X130166247Y-117298882D01*
X130035843Y-117223594D01*
X130035842Y-117223593D01*
X130035841Y-117223593D01*
X129890388Y-117184619D01*
X129739804Y-117184619D01*
X129594351Y-117223593D01*
X129594349Y-117223594D01*
X129594348Y-117223594D01*
X129463944Y-117298882D01*
X129463939Y-117298886D01*
X129357463Y-117405362D01*
X129357459Y-117405367D01*
X129282171Y-117535771D01*
X129282171Y-117535772D01*
X129282170Y-117535774D01*
X129243196Y-117681227D01*
X121374873Y-117681227D01*
X121457135Y-117568004D01*
X121537305Y-117410660D01*
X121591875Y-117242712D01*
X121602646Y-117174708D01*
X130535602Y-117174708D01*
X130535602Y-117174710D01*
X130535602Y-117325293D01*
X130557879Y-117408435D01*
X130557882Y-117408444D01*
X130574576Y-117470745D01*
X130595205Y-117506477D01*
X130595207Y-117506480D01*
X130649863Y-117601148D01*
X130649867Y-117601153D01*
X130649868Y-117601155D01*
X130756347Y-117707634D01*
X130756348Y-117707635D01*
X130756350Y-117707636D01*
X130791795Y-117728100D01*
X130886757Y-117782926D01*
X131032210Y-117821900D01*
X131032212Y-117821900D01*
X131182791Y-117821900D01*
X131182794Y-117821900D01*
X131328247Y-117782926D01*
X131458657Y-117707634D01*
X131565136Y-117601155D01*
X131640428Y-117470745D01*
X131679402Y-117325292D01*
X131679402Y-117174708D01*
X131640428Y-117029255D01*
X131565136Y-116898845D01*
X131458657Y-116792366D01*
X131458656Y-116792365D01*
X131458653Y-116792363D01*
X131328249Y-116717075D01*
X131328248Y-116717074D01*
X131328247Y-116717074D01*
X131182794Y-116678100D01*
X131032210Y-116678100D01*
X130886757Y-116717074D01*
X130886755Y-116717075D01*
X130886754Y-116717075D01*
X130756350Y-116792363D01*
X130756345Y-116792367D01*
X130649869Y-116898843D01*
X130649865Y-116898848D01*
X130574577Y-117029252D01*
X130574577Y-117029253D01*
X130574576Y-117029255D01*
X130535602Y-117174708D01*
X121602646Y-117174708D01*
X121619500Y-117068295D01*
X121619500Y-116891705D01*
X121591875Y-116717288D01*
X121537305Y-116549340D01*
X121457135Y-116391996D01*
X121353337Y-116249131D01*
X121228469Y-116124263D01*
X121137722Y-116058331D01*
X121085602Y-116020463D01*
X120989173Y-115971331D01*
X120989172Y-115971331D01*
X120928264Y-115940296D01*
X120764571Y-115887109D01*
X120746275Y-115874598D01*
X120732430Y-115868973D01*
X133235601Y-115868973D01*
X133235601Y-116019557D01*
X133274575Y-116165010D01*
X133274576Y-116165011D01*
X133274576Y-116165012D01*
X133349864Y-116295416D01*
X133349866Y-116295419D01*
X133349867Y-116295420D01*
X133456346Y-116401899D01*
X133586756Y-116477191D01*
X133732209Y-116516165D01*
X133732211Y-116516165D01*
X133882790Y-116516165D01*
X133882793Y-116516165D01*
X134028246Y-116477191D01*
X134158656Y-116401899D01*
X134265135Y-116295420D01*
X134340427Y-116165010D01*
X134379401Y-116019557D01*
X134379401Y-115868973D01*
X134340427Y-115723520D01*
X134265135Y-115593110D01*
X134246733Y-115574708D01*
X138778100Y-115574708D01*
X138778100Y-115725292D01*
X138817074Y-115870745D01*
X138817075Y-115870746D01*
X138817075Y-115870747D01*
X138892363Y-116001151D01*
X138892365Y-116001154D01*
X138892366Y-116001155D01*
X138998845Y-116107634D01*
X139129255Y-116182926D01*
X139274708Y-116221900D01*
X139274710Y-116221900D01*
X139425289Y-116221900D01*
X139425292Y-116221900D01*
X139570745Y-116182926D01*
X139701155Y-116107634D01*
X139807634Y-116001155D01*
X139882926Y-115870745D01*
X139908659Y-115774708D01*
X140528100Y-115774708D01*
X140528100Y-115925292D01*
X140567074Y-116070745D01*
X140567075Y-116070746D01*
X140567075Y-116070747D01*
X140642363Y-116201151D01*
X140642365Y-116201154D01*
X140642366Y-116201155D01*
X140748845Y-116307634D01*
X140879255Y-116382926D01*
X141024708Y-116421900D01*
X141024710Y-116421900D01*
X141175289Y-116421900D01*
X141175292Y-116421900D01*
X141320745Y-116382926D01*
X141451155Y-116307634D01*
X141469631Y-116289157D01*
X141530951Y-116255672D01*
X141600643Y-116260655D01*
X141619312Y-116269451D01*
X141664292Y-116295420D01*
X141729255Y-116332926D01*
X141874708Y-116371900D01*
X141874710Y-116371900D01*
X142025289Y-116371900D01*
X142025292Y-116371900D01*
X142170745Y-116332926D01*
X142301155Y-116257634D01*
X142333029Y-116225758D01*
X142394349Y-116192274D01*
X142464040Y-116197257D01*
X142482707Y-116206051D01*
X142529255Y-116232926D01*
X142674708Y-116271900D01*
X142674710Y-116271900D01*
X142825289Y-116271900D01*
X142825292Y-116271900D01*
X142970745Y-116232926D01*
X143101155Y-116157634D01*
X143207634Y-116051155D01*
X143282926Y-115920745D01*
X143321900Y-115775292D01*
X143321900Y-115624708D01*
X143282926Y-115479255D01*
X143207634Y-115348845D01*
X143101155Y-115242366D01*
X143101154Y-115242365D01*
X143101151Y-115242363D01*
X142970747Y-115167075D01*
X142970746Y-115167074D01*
X142970745Y-115167074D01*
X142825292Y-115128100D01*
X142674708Y-115128100D01*
X142529255Y-115167074D01*
X142529253Y-115167075D01*
X142529252Y-115167075D01*
X142398845Y-115242365D01*
X142366967Y-115274242D01*
X142305643Y-115307725D01*
X142235951Y-115302739D01*
X142217289Y-115293946D01*
X142170745Y-115267074D01*
X142025292Y-115228100D01*
X141874708Y-115228100D01*
X141729255Y-115267074D01*
X141729253Y-115267075D01*
X141729252Y-115267075D01*
X141598848Y-115342363D01*
X141598842Y-115342368D01*
X141580366Y-115360844D01*
X141519043Y-115394328D01*
X141449351Y-115389342D01*
X141430688Y-115380549D01*
X141320745Y-115317074D01*
X141285854Y-115307725D01*
X141175292Y-115278100D01*
X141024708Y-115278100D01*
X140879255Y-115317074D01*
X140879253Y-115317075D01*
X140879252Y-115317075D01*
X140748848Y-115392363D01*
X140748843Y-115392367D01*
X140642367Y-115498843D01*
X140642363Y-115498848D01*
X140567075Y-115629252D01*
X140567075Y-115629253D01*
X140567074Y-115629255D01*
X140528100Y-115774708D01*
X139908659Y-115774708D01*
X139921900Y-115725292D01*
X139921900Y-115574708D01*
X139882926Y-115429255D01*
X139818159Y-115317075D01*
X139807636Y-115298848D01*
X139807632Y-115298843D01*
X139701156Y-115192367D01*
X139701151Y-115192363D01*
X139570747Y-115117075D01*
X139570746Y-115117074D01*
X139570745Y-115117074D01*
X139425292Y-115078100D01*
X139274708Y-115078100D01*
X139129255Y-115117074D01*
X139129253Y-115117075D01*
X139129252Y-115117075D01*
X138998848Y-115192363D01*
X138998843Y-115192367D01*
X138892367Y-115298843D01*
X138892363Y-115298848D01*
X138817075Y-115429252D01*
X138817075Y-115429253D01*
X138817074Y-115429255D01*
X138778100Y-115574708D01*
X134246733Y-115574708D01*
X134158656Y-115486631D01*
X134158655Y-115486630D01*
X134158652Y-115486628D01*
X134028248Y-115411340D01*
X134028247Y-115411339D01*
X134028246Y-115411339D01*
X133882793Y-115372365D01*
X133732209Y-115372365D01*
X133586756Y-115411339D01*
X133586754Y-115411340D01*
X133586753Y-115411340D01*
X133456349Y-115486628D01*
X133456344Y-115486632D01*
X133349868Y-115593108D01*
X133349864Y-115593113D01*
X133274576Y-115723517D01*
X133274576Y-115723518D01*
X133274575Y-115723520D01*
X133235601Y-115868973D01*
X120732430Y-115868973D01*
X120725740Y-115866255D01*
X120717995Y-115855261D01*
X120706896Y-115847671D01*
X120698267Y-115827254D01*
X120685504Y-115809134D01*
X120681434Y-115787420D01*
X120679698Y-115783312D01*
X120679004Y-115774477D01*
X120674040Y-115657695D01*
X120690860Y-115589884D01*
X120741673Y-115541928D01*
X120759610Y-115534502D01*
X120760305Y-115534276D01*
X120760312Y-115534275D01*
X120928260Y-115479705D01*
X121085604Y-115399535D01*
X121228469Y-115295737D01*
X121353337Y-115170869D01*
X121457135Y-115028004D01*
X121537305Y-114870660D01*
X121544132Y-114849649D01*
X131203159Y-114849649D01*
X131203159Y-115000233D01*
X131242133Y-115145686D01*
X131242134Y-115145687D01*
X131242134Y-115145688D01*
X131317422Y-115276092D01*
X131317424Y-115276095D01*
X131317425Y-115276096D01*
X131423904Y-115382575D01*
X131423905Y-115382576D01*
X131423907Y-115382577D01*
X131489109Y-115420221D01*
X131554314Y-115457867D01*
X131699767Y-115496841D01*
X131699769Y-115496841D01*
X131850348Y-115496841D01*
X131850351Y-115496841D01*
X131995804Y-115457867D01*
X132126214Y-115382575D01*
X132232693Y-115276096D01*
X132307985Y-115145686D01*
X132346959Y-115000233D01*
X132346959Y-114849649D01*
X132307985Y-114704196D01*
X132232693Y-114573786D01*
X132126214Y-114467307D01*
X132126213Y-114467306D01*
X132126210Y-114467304D01*
X131995806Y-114392016D01*
X131995805Y-114392015D01*
X131995804Y-114392015D01*
X131850351Y-114353041D01*
X131699767Y-114353041D01*
X131554314Y-114392015D01*
X131554312Y-114392016D01*
X131554311Y-114392016D01*
X131423907Y-114467304D01*
X131423902Y-114467308D01*
X131317426Y-114573784D01*
X131317422Y-114573789D01*
X131242134Y-114704193D01*
X131242134Y-114704194D01*
X131242133Y-114704196D01*
X131203159Y-114849649D01*
X121544132Y-114849649D01*
X121591875Y-114702712D01*
X121619500Y-114528295D01*
X121619500Y-114351705D01*
X121591875Y-114177288D01*
X121537305Y-114009340D01*
X121457135Y-113851996D01*
X121353337Y-113709131D01*
X121228469Y-113584263D01*
X121085604Y-113480465D01*
X120928260Y-113400295D01*
X120760312Y-113345725D01*
X120760310Y-113345724D01*
X120760308Y-113345724D01*
X120674700Y-113332165D01*
X120646181Y-113318645D01*
X120616947Y-113306768D01*
X120614852Y-113303794D01*
X120611565Y-113302236D01*
X120594885Y-113275448D01*
X120576711Y-113249647D01*
X120575802Y-113244801D01*
X120574634Y-113242924D01*
X120570210Y-113214963D01*
X120566859Y-113136103D01*
X120583679Y-113068289D01*
X120634493Y-113020333D01*
X120671348Y-113008366D01*
X120717834Y-113001003D01*
X120760307Y-112994277D01*
X120760307Y-112994276D01*
X120760312Y-112994276D01*
X120928260Y-112939706D01*
X121085604Y-112859536D01*
X121228469Y-112755738D01*
X121353337Y-112630870D01*
X121457135Y-112488005D01*
X121537305Y-112330661D01*
X121591875Y-112162713D01*
X121619500Y-111988296D01*
X121619500Y-111811706D01*
X121591875Y-111637289D01*
X121537305Y-111469341D01*
X121457135Y-111311997D01*
X121353337Y-111169132D01*
X121228469Y-111044264D01*
X121085604Y-110940466D01*
X120928260Y-110860296D01*
X120760312Y-110805726D01*
X120760310Y-110805725D01*
X120760309Y-110805725D01*
X120626326Y-110784504D01*
X120585895Y-110778101D01*
X120585472Y-110778101D01*
X120585316Y-110778055D01*
X120581032Y-110777718D01*
X120581102Y-110776818D01*
X120579338Y-110776300D01*
X120573054Y-110777478D01*
X120546218Y-110766574D01*
X120518433Y-110758416D01*
X120514246Y-110753584D01*
X120508323Y-110751178D01*
X120491642Y-110727498D01*
X120472678Y-110705612D01*
X120470845Y-110697975D01*
X120468086Y-110694057D01*
X120461584Y-110659367D01*
X120459535Y-110611165D01*
X120476354Y-110543350D01*
X120527168Y-110495394D01*
X120581046Y-110482469D01*
X120581032Y-110482282D01*
X120582214Y-110482188D01*
X120583423Y-110481899D01*
X120585894Y-110481899D01*
X120585895Y-110481899D01*
X120760312Y-110454274D01*
X120928260Y-110399704D01*
X121085604Y-110319534D01*
X121228469Y-110215736D01*
X121353337Y-110090868D01*
X121457135Y-109948003D01*
X121537305Y-109790659D01*
X121591875Y-109622711D01*
X121619500Y-109448294D01*
X121619500Y-109271704D01*
X121591875Y-109097287D01*
X121537305Y-108929339D01*
X121457135Y-108771995D01*
X121353337Y-108629130D01*
X121228469Y-108504262D01*
X121085604Y-108400464D01*
X120928260Y-108320294D01*
X120760312Y-108265724D01*
X120760310Y-108265723D01*
X120760309Y-108265723D01*
X120626326Y-108244502D01*
X120585895Y-108238099D01*
X120477507Y-108238099D01*
X120471373Y-108236298D01*
X120465089Y-108237476D01*
X120438253Y-108226572D01*
X120410468Y-108218414D01*
X120406281Y-108213582D01*
X120400358Y-108211176D01*
X120383676Y-108187494D01*
X120364713Y-108165610D01*
X120362881Y-108157974D01*
X120360121Y-108154056D01*
X120353619Y-108119370D01*
X120351570Y-108071164D01*
X120368389Y-108003352D01*
X120419202Y-107955395D01*
X120475458Y-107941900D01*
X120585894Y-107941900D01*
X120585895Y-107941900D01*
X120760312Y-107914275D01*
X120928260Y-107859705D01*
X121085604Y-107779535D01*
X121228469Y-107675737D01*
X121353337Y-107550869D01*
X121457135Y-107408004D01*
X121537305Y-107250660D01*
X121591875Y-107082712D01*
X121619500Y-106908295D01*
X121619500Y-106731705D01*
X121591875Y-106557288D01*
X121537305Y-106389340D01*
X121457135Y-106231996D01*
X121353337Y-106089131D01*
X121228469Y-105964263D01*
X121085604Y-105860465D01*
X120928260Y-105780295D01*
X120760312Y-105725725D01*
X120760310Y-105725724D01*
X120760309Y-105725724D01*
X120611756Y-105702196D01*
X120585895Y-105698100D01*
X120409305Y-105698100D01*
X120409301Y-105698100D01*
X120389137Y-105701293D01*
X120373160Y-105699227D01*
X120357325Y-105702196D01*
X120339222Y-105694840D01*
X120319844Y-105692336D01*
X120307518Y-105681959D01*
X120292594Y-105675896D01*
X120281342Y-105659923D01*
X120266393Y-105647338D01*
X120261190Y-105631316D01*
X120252357Y-105618776D01*
X120245856Y-105584092D01*
X120243389Y-105526050D01*
X120260207Y-105458240D01*
X120311020Y-105410283D01*
X120379694Y-105397411D01*
X120386644Y-105398310D01*
X120409305Y-105401900D01*
X120409308Y-105401900D01*
X120585894Y-105401900D01*
X120585895Y-105401900D01*
X120760312Y-105374275D01*
X120928260Y-105319705D01*
X121085604Y-105239535D01*
X121228469Y-105135737D01*
X121353337Y-105010869D01*
X121457135Y-104868004D01*
X121537305Y-104710660D01*
X121591875Y-104542712D01*
X121619500Y-104368295D01*
X121619500Y-104191705D01*
X121591875Y-104017288D01*
X121537305Y-103849340D01*
X121457135Y-103691996D01*
X121353337Y-103549131D01*
X121228469Y-103424263D01*
X121085604Y-103320465D01*
X120928260Y-103240295D01*
X120760312Y-103185725D01*
X120760310Y-103185724D01*
X120760309Y-103185724D01*
X120626326Y-103164503D01*
X120585895Y-103158100D01*
X120409305Y-103158100D01*
X120348341Y-103167755D01*
X120281899Y-103178279D01*
X120265921Y-103176214D01*
X120250083Y-103179183D01*
X120231980Y-103171827D01*
X120212605Y-103169324D01*
X120200278Y-103158947D01*
X120185352Y-103152883D01*
X120174101Y-103136911D01*
X120159153Y-103124328D01*
X120153950Y-103108305D01*
X120145115Y-103095763D01*
X120138614Y-103061078D01*
X120134693Y-102968835D01*
X120151511Y-102901025D01*
X120202324Y-102853068D01*
X120270998Y-102840196D01*
X120277978Y-102841100D01*
X120351166Y-102852691D01*
X120409305Y-102861900D01*
X120409306Y-102861900D01*
X120585894Y-102861900D01*
X120585895Y-102861900D01*
X120760312Y-102834275D01*
X120928260Y-102779705D01*
X120944742Y-102771307D01*
X126504300Y-102771307D01*
X126504300Y-102921891D01*
X126543274Y-103067344D01*
X126543275Y-103067345D01*
X126543275Y-103067346D01*
X126618563Y-103197750D01*
X126618565Y-103197753D01*
X126618566Y-103197754D01*
X126725045Y-103304233D01*
X126725046Y-103304234D01*
X126725048Y-103304235D01*
X126790250Y-103341879D01*
X126855455Y-103379525D01*
X127000908Y-103418499D01*
X127000910Y-103418499D01*
X127151489Y-103418499D01*
X127151492Y-103418499D01*
X127296945Y-103379525D01*
X127427355Y-103304233D01*
X127533834Y-103197754D01*
X127609126Y-103067344D01*
X127648100Y-102921891D01*
X127648100Y-102771307D01*
X127609126Y-102625854D01*
X127533834Y-102495444D01*
X127427355Y-102388965D01*
X127427354Y-102388964D01*
X127427351Y-102388962D01*
X127296947Y-102313674D01*
X127296946Y-102313673D01*
X127296945Y-102313673D01*
X127151492Y-102274699D01*
X127000908Y-102274699D01*
X126855455Y-102313673D01*
X126855453Y-102313674D01*
X126855452Y-102313674D01*
X126725048Y-102388962D01*
X126725043Y-102388966D01*
X126618567Y-102495442D01*
X126618563Y-102495447D01*
X126543275Y-102625851D01*
X126543275Y-102625852D01*
X126543274Y-102625854D01*
X126504300Y-102771307D01*
X120944742Y-102771307D01*
X121085604Y-102699535D01*
X121228469Y-102595737D01*
X121353337Y-102470869D01*
X121457135Y-102328004D01*
X121537305Y-102170660D01*
X121591875Y-102002712D01*
X121619500Y-101828295D01*
X121619500Y-101651705D01*
X121591875Y-101477288D01*
X121537305Y-101309340D01*
X121457135Y-101151996D01*
X121353337Y-101009131D01*
X121228469Y-100884263D01*
X121085604Y-100780465D01*
X120928260Y-100700295D01*
X120760312Y-100645725D01*
X120760310Y-100645724D01*
X120760309Y-100645724D01*
X120626326Y-100624503D01*
X120585895Y-100618100D01*
X120409305Y-100618100D01*
X120376482Y-100623298D01*
X120234890Y-100645724D01*
X120234886Y-100645725D01*
X120193929Y-100659033D01*
X120124088Y-100661028D01*
X120064255Y-100624947D01*
X120033428Y-100562246D01*
X120031725Y-100546380D01*
X120005494Y-99929264D01*
X120022314Y-99861451D01*
X120073127Y-99813495D01*
X120129382Y-99800000D01*
X151775059Y-99800000D01*
X151842098Y-99819685D01*
G37*
%TD.AperFunction*%
%TD*%
M02*
