M48
; DRILL file KiCad 10.0.2 date 2026-05-30T19:24:25
; FORMAT={-:-/ absolute / inch / decimal}
; #@! TF.CreationDate,2026-05-30T19:24:25+05:30
; #@! TF.GenerationSoftware,Kicad,Pcbnew,10.0.2
; #@! TF.FileFunction,Plated,1,4,PTH
FMAT,2
INCH
; #@! TA.AperFunction,Plated,PTH,ViaDrill
T1C0.0118
; #@! TA.AperFunction,Plated,PTH,ComponentDrill
T2C0.0236
; #@! TA.AperFunction,Plated,PTH,ComponentDrill
T3C0.0394
%
G90
G05
T1
X4.8768Y-4.9145
X4.878Y-4.874
X4.8937Y-4.685
X4.9455Y-5.1429
X4.9729Y-4.7945
X4.9887Y-5.2156
X5.003Y-4.0491
X5.0118Y-4.6575
X5.0208Y-4.5127
X5.0308Y-5.1715
X5.0541Y-5.0344
X5.0574Y-4.9793
X5.1094Y-5.1591
X5.1108Y-4.6361
X5.1181Y-4.7402
X5.1393Y-5.2794
X5.1457Y-5.6417
X5.1476Y-4.9742
X5.1617Y-4.6161
X5.1636Y-5.1431
X5.1658Y-5.2153
X5.188Y-4.5246
X5.1977Y-5.2209
X5.2228Y-4.9744
X5.2282Y-5.1496
X5.2377Y-5.608
X5.2402Y-5.2598
X5.2518Y-5.0119
X5.268Y-4.5647
X5.268Y-4.6339
X5.293Y-5.679
X5.3071Y-4.6634
X5.3071Y-5.0276
X5.3294Y-4.6857
X5.3303Y-4.7343
X5.3776Y-4.7441
X5.3878Y-4.9508
X5.4862Y-4.5531
X5.502Y-5.0374
X5.5551Y-4.561
X5.5886Y-4.5591
X5.6201Y-4.5551
X5.7224Y-5.2244
T3
X4.744Y-4.0055
X4.744Y-4.1055
X4.744Y-4.2055
X4.744Y-4.3055
X4.744Y-4.4055
X4.744Y-4.5055
X4.744Y-4.6055
X4.744Y-4.7055
X4.744Y-4.8055
X4.744Y-4.9055
X4.744Y-5.0055
X4.744Y-5.1055
X4.744Y-5.2055
X4.744Y-5.3055
X4.744Y-5.4055
X4.744Y-5.5055
X4.744Y-5.6055
X4.744Y-5.7055
X4.744Y-5.8055
X4.744Y-5.9055
X6.05Y-3.998
X6.05Y-4.098
X6.05Y-4.198
X6.05Y-4.298
X6.05Y-4.398
X6.05Y-4.498
X6.05Y-4.598
X6.05Y-4.698
X6.05Y-4.798
X6.05Y-4.898
X6.05Y-4.998
X6.05Y-5.098
X6.05Y-5.198
X6.05Y-5.298
X6.05Y-5.398
X6.05Y-5.498
X6.05Y-5.598
X6.05Y-5.698
X6.05Y-5.798
X6.05Y-5.898
T2
G00X5.2531Y-5.7728
M15
G01X5.2531Y-5.8161
M16
G05
G00X5.2531Y-5.9472
M15
G01X5.2531Y-5.9709
M16
G05
G00X5.5933Y-5.7728
M15
G01X5.5933Y-5.8161
M16
G05
G00X5.5933Y-5.9472
M15
G01X5.5933Y-5.9709
M16
G05
M30
