%TF.GenerationSoftware,KiCad,Pcbnew,10.0.2*%
%TF.CreationDate,2026-05-30T19:24:25+05:30*%
%TF.ProjectId,FPGABoard,46504741-426f-4617-9264-2e6b69636164,rev?*%
%TF.SameCoordinates,Original*%
%TF.FileFunction,Legend,Bot*%
%TF.FilePolarity,Positive*%
%FSLAX46Y46*%
G04 Gerber Fmt 4.6, Leading zero omitted, Abs format (unit mm)*
G04 Created by KiCad (PCBNEW 10.0.2) date 2026-05-30 19:24:25*
%MOMM*%
%LPD*%
G01*
G04 APERTURE LIST*
%ADD10C,0.650000*%
%ADD11O,1.000000X2.100000*%
%ADD12O,1.000000X1.600000*%
%ADD13R,1.700000X1.700000*%
%ADD14C,1.700000*%
G04 APERTURE END LIST*
%LPC*%
D10*
%TO.C,J1*%
X134860000Y-147710000D03*
X140640000Y-147710000D03*
D11*
X133430000Y-147180000D03*
D12*
X133430000Y-151360000D03*
D11*
X142070000Y-147180000D03*
D12*
X142070000Y-151360000D03*
%TD*%
D13*
%TO.C,J3*%
X153670000Y-149809200D03*
D14*
X153670000Y-147269200D03*
X153670000Y-144729201D03*
X153670000Y-142189200D03*
X153670000Y-139649200D03*
X153670000Y-137109200D03*
X153670000Y-134569200D03*
X153670000Y-132029199D03*
X153670000Y-129489200D03*
X153670000Y-126949200D03*
X153670000Y-124409200D03*
X153670000Y-121869201D03*
X153670000Y-119329200D03*
X153670000Y-116789200D03*
X153670000Y-114249200D03*
X153670000Y-111709201D03*
X153670000Y-109169199D03*
X153670000Y-106629200D03*
X153670000Y-104089200D03*
X153670000Y-101549200D03*
%TD*%
D13*
%TO.C,J2*%
X120497600Y-150000000D03*
D14*
X120497600Y-147460000D03*
X120497600Y-144920001D03*
X120497600Y-142380000D03*
X120497600Y-139840000D03*
X120497600Y-137300000D03*
X120497600Y-134760000D03*
X120497600Y-132219999D03*
X120497600Y-129680000D03*
X120497600Y-127140000D03*
X120497600Y-124600000D03*
X120497600Y-122060001D03*
X120497600Y-119520000D03*
X120497600Y-116980000D03*
X120497600Y-114440000D03*
X120497600Y-111900001D03*
X120497600Y-109359999D03*
X120497600Y-106820000D03*
X120497600Y-104280000D03*
X120497600Y-101740000D03*
%TD*%
%LPD*%
M02*
